<svg id="Layer_1" enable-background="new 0 0 512 512" height="512" viewBox="0 0 512 512" width="512" xmlns="http://www.w3.org/2000/svg"><g><path d="m246 165c0 22.091-17.909 40-40 40h-20v-114.048c0-38.439 30.592-70.422 69.027-70.946 11.096-.151 21.605 2.288 30.973 6.739-23.647 11.236-40 35.333-40 63.255zm-166 90c0-38.66 31.34-70 70-70h-60c-38.66 0-70 31.34-70 70s31.34 70 70 70h60c-38.66 0-70-31.34-70-70zm166 167v-77c0-22.091-17.909-40-40-40h-20v116.048c0 38.439 30.592 70.422 69.027 70.946 11.096.151 21.605-2.288 30.973-6.739-23.647-11.236-40-35.333-40-63.255z" fill="#c6e1f2"/><path d="m256 512c-49.626 0-90-40.374-90-90v-77h-76c-49.626 0-90-40.374-90-90s40.374-90 90-90h76v-75c0-49.626 40.374-90 90-90s90 40.374 90 90v75h76c49.626 0 90 40.374 90 90 0 11.046-8.954 20-20 20s-20-8.954-20-20c0-27.57-22.43-50-50-50h-96c-11.046 0-20-8.954-20-20v-95c0-27.57-22.43-50-50-50s-50 22.43-50 50v95c0 11.046-8.954 20-20 20h-96c-27.57 0-50 22.43-50 50s22.43 50 50 50h96c11.046 0 20 8.954 20 20v97c0 27.57 22.43 50 50 50s50-22.43 50-50v-97c0-11.046 8.954-20 20-20s20 8.954 20 20v97c0 49.626-40.374 90-90 90z" fill="#0023c4"/><path d="m422 345h-18c-11.046 0-20-8.954-20-20s8.954-20 20-20h18c6.694 0 13.421-1.456 19.993-4.327 10.123-4.421 21.913.198 26.334 10.32 4.422 10.121-.198 21.912-10.32 26.334-11.653 5.092-23.768 7.673-36.007 7.673z" fill="#ff5cf4"/></g></svg>